<svg id="Layer_1" enable-background="new 0 0 512 512" height="512" viewBox="0 0 512 512" width="512" xmlns="http://www.w3.org/2000/svg"><g><g><ellipse cx="256" cy="255.881" fill="#c8effe" rx="256" ry="255.881"/></g><path d="m6.269 199.406v112.949c25.728 114.144 127.762 199.406 249.731 199.406 141.385 0 256-114.562 256-255.881 0-30.054-5.2-58.889-14.723-85.678h-482.554c-3.374 9.491-6.207 19.236-8.454 29.204z" fill="#e4f2f6"/><g><path d="m502.333 185.995h-492.646c-6.301 22.214-9.687 45.653-9.687 69.886 0 57.738 19.139 111.003 51.412 153.82v-218.304h452.503c-.505-1.958-1.033-3.463-1.582-5.402z" fill="#b4d7dc"/></g><path d="m9.667 185.995h492.666c-8.918-31.466-23.72-60.455-43.124-85.731h-406.418c-19.404 25.275-34.206 54.265-43.124 85.731z" fill="#fd4755"/><g><path d="m494.733 348.418v-60.899h-116.243v134.237h72.42c18.448-21.636 33.355-46.378 43.823-73.338z" fill="#afe6ff"/><path d="m437.176 322.488h57.557v-34.969h-116.243v134.237h58.686z" fill="#73c8f0"/><path d="m494.733 287.519v60.899c6.062-15.614 10.633-31.97 13.543-48.895v-12.004-13.537h-13.543-116.243-13.543v13.537 134.237 13.537h13.543 60.017c4.293-4.362 8.43-8.877 12.403-13.537h-72.42v-134.237z" fill="#e4f2f6"/><path d="m512 255.881c0-.095-.003-.189-.003-.284l-2.593-7.559h-145.586l-13.543 39.482h159.777c1.279-10.369 1.948-20.926 1.948-31.639z" fill="#fd4755"/><path d="m510.052 287.519h-159.776v15.793h157.317c.976-5.212 1.803-10.476 2.459-15.793z" fill="#aa321e"/><path d="m364.947 435.293v20.305l61.358-8.692c4.193-3.738 8.263-7.61 12.202-11.612h-73.56z" fill="#e4f2f6"/></g><g><path d="m146.415 487.183c33.222 15.753 70.37 24.578 109.585 24.578s76.363-8.826 109.585-24.578z" fill="#e4f2f6"/><path d="m95.427 455.165c43.913 35.399 99.764 56.596 160.573 56.596 10.592 0 21.029-.656 31.284-1.905v-266.467h-191.857z" fill="#fff"/><path d="m122.512 474.245c38.867 23.792 84.571 37.516 133.488 37.516 1.404 0 2.8-.031 4.198-.053v-240.906h-137.686z" fill="#fd4755"/><g><path d="m211.87 374.378c-.722 0-1.444-.275-1.995-.826l-17.956-17.947-17.956 17.947c-1.102 1.102-2.888 1.102-3.99 0-1.102-1.101-1.102-2.887 0-3.988l19.951-19.941c1.101-1.102 2.889-1.102 3.99 0l19.951 19.941c1.102 1.101 1.102 2.887 0 3.988-.551.551-1.273.826-1.995.826z" fill="#f6a96c"/></g><path d="m156.369 368.738h71.1v30.457h-71.1z" fill="#373c41"/><path d="m156.369 368.738h12.414v30.457h-12.414z" fill="#2f3438"/></g><g><g><path d="m414.248 360.607-22.571 151.393h-12.415l2.257-19.177h-80.128l-3.386 19.177h-12.414l22.571-151.393z" fill="#965028"/></g><g><path d="m308.162 360.607 22.572 151.393h12.414l-2.257-19.177h80.128l3.386 19.177h12.414l-22.571-151.393z" fill="#a56941"/></g><g><path d="m421.019 479.287h-81.257l-15.8-104.909h81.257z" fill="#373c41"/></g><g><path d="m336.377 383.403h70.202l-1.36-9.025h-81.257l15.8 104.909h11.055z" fill="#2f3438"/></g><g><path d="m325.877 479.66-12.247-82.142-9.608 82.142z" fill="#823214"/></g><g><path d="m370.8 399.759h-29.343c-1.558 0-2.821-1.263-2.821-2.82s1.263-2.82 2.821-2.82h29.343c1.558 0 2.821 1.263 2.821 2.82s-1.263 2.82-2.821 2.82z" fill="#50555a"/></g><g><path d="m371.777 419.5c-.006 0-.012 0-.018 0l-27.65-.169c-1.558-.01-2.814-1.28-2.804-2.837.01-1.551 1.271-2.803 2.821-2.803h.018l27.65.169c1.558.01 2.814 1.28 2.804 2.837-.009 1.552-1.271 2.803-2.821 2.803z" fill="#50555a"/></g><g><path d="m399.991 419.5h-18.057c-1.558 0-2.821-1.263-2.821-2.82s1.263-2.82 2.821-2.82h18.057c1.558 0 2.821 1.263 2.821 2.82s-1.263 2.82-2.821 2.82z" fill="#50555a"/></g><g><path d="m386.157 435.293h-39.5c-1.558 0-2.821-1.263-2.821-2.82s1.263-2.82 2.821-2.82h39.5c1.558 0 2.821 1.263 2.821 2.82s-1.263 2.82-2.821 2.82z" fill="#50555a"/></g><g><path d="m371.72 453.342h-22.571c-1.558 0-2.821-1.263-2.821-2.82s1.263-2.82 2.821-2.82h22.571c1.558 0 2.821 1.263 2.821 2.82.001 1.557-1.263 2.82-2.821 2.82z" fill="#50555a"/></g><g><path d="m399.507 453.342h-15.373c-1.558 0-2.821-1.263-2.821-2.82s1.263-2.82 2.821-2.82h15.373c1.558 0 2.821 1.263 2.821 2.82.001 1.557-1.263 2.82-2.821 2.82z" fill="#50555a"/></g></g><g><path d="m387.326 78.433c-.036 0-.069.003-.106.003-.716-5.487-5.399-9.727-11.084-9.727h-246.82c-5.685 0-10.368 4.241-11.084 9.727-.036 0-.069-.003-.106-.003-15.078 0-27.301 12.217-27.301 27.288s12.223 27.288 27.301 27.288c.037 0 .069-.003.106-.003.716 5.487 5.399 9.727 11.084 9.727h246.82c5.685 0 10.368-4.241 11.084-9.727.036 0 .069.003.106.003 15.078 0 27.301-12.217 27.301-27.288s-12.223-27.288-27.301-27.288z" fill="#a56941"/><path d="m387.326 70.65c-.036 0-.069.003-.106.003-.716-5.487-5.399-9.727-11.084-9.727h-246.82c-5.685 0-10.368 4.241-11.084 9.727-.036 0-.069-.003-.106-.003-15.078 0-27.301 12.218-27.301 27.288 0 15.071 12.223 27.288 27.301 27.288.037 0 .069-.003.106-.003.716 5.487 5.399 9.727 11.084 9.727h246.82c5.685 0 10.368-4.241 11.084-9.727.036 0 .069.003.106.003 15.078 0 27.301-12.217 27.301-27.288 0-15.07-12.223-27.288-27.301-27.288z" fill="#f6a96c"/><path d="m376.137 71.303c.454 0 .745.357.789.692l1.183 9.069 9.15-.034c.063 0 .124-.001.186-.002 9.275.064 16.801 7.625 16.801 16.911s-7.525 16.847-16.801 16.911c-.061-.001-.123-.002-.186-.002l-9.15-.034-1.183 9.069c-.044.336-.335.692-.789.692h-246.82c-.454 0-.745-.357-.789-.692l-1.183-9.069-9.15.033c-.063 0-.125.001-.186.002-9.275-.064-16.801-7.625-16.801-16.911s7.525-16.847 16.801-16.911c.061.001.123.002.186.002l9.15.033 1.183-9.069c.044-.336.335-.692.789-.692h246.82m0-10.376h-246.82c-5.685 0-10.368 4.241-11.084 9.727-.036 0-.069-.003-.106-.003-15.078 0-27.301 12.217-27.301 27.288s12.223 27.288 27.301 27.288c.037 0 .069-.003.106-.003.716 5.487 5.399 9.727 11.084 9.727h246.82c5.685 0 10.368-4.241 11.084-9.727.036 0 .069.003.106.003 15.078 0 27.301-12.217 27.301-27.288s-12.224-27.287-27.302-27.287c-.036 0-.069.003-.106.003-.715-5.487-5.399-9.728-11.083-9.728z" fill="#f7c9a9"/><g fill="#fff"><path d="m137.08 108.544 1.266-.115c.653-.077 1.113-.307 1.113-1.074v-17.837l-2.188-.115v-3.26h10.477c5.641 0 9.21 1.841 9.21 7.058 0 3.836-2.494 5.907-4.605 6.751 1.036.383 1.612 1.036 2.188 2.34l2.763 6.022 2.188.076v3.261h-9.479v-3.107l1.113-.115c.883-.115 1.074-.46.729-1.227l-1.804-3.836c-.537-1.189-1.074-1.764-2.418-1.764h-3.492v6.674l2.494.115v3.261h-9.556v-3.108zm10.4-10.587c3.262 0 4.72-1.496 4.72-4.219 0-3.452-1.995-3.874-5.258-3.874h-2.802v8.094h3.34z"/><path d="m161.184 111.651v-3.107l1.267-.115c.652-.077 1.113-.307 1.113-1.074v-17.837l-2.187-.115v-3.26h17.577v6.367l-3.915.268v-1.534c0-.729-.077-1.189-1.113-1.189h-5.68v6.559h8.865v3.913h-8.865v7.173h6.179c.998 0 1.074-.46 1.074-1.227v-1.917l3.914.268v6.828h-18.229z"/><path d="m194.806 104.516c0-2.416-2.188-3.107-4.874-3.836-3.799-1.035-7.33-2.57-7.33-7.48 0-4.68 3.608-7.518 8.904-7.518 2.533 0 4.912.499 7.215 1.573v5.754l-3.914.268v-2.224c0-.729-.115-1.036-.806-1.266-.729-.23-1.727-.306-2.494-.306-2.264 0-4.03.92-4.03 3.298s2.226 3.031 5.104 3.913c3.492 1.112 7.177 2.685 7.177 7.633 0 5.063-3.991 7.825-9.287 7.825-3.07 0-5.449-.499-7.752-1.573v-6.061l3.914-.268v2.34c0 .729.115 1.036.806 1.266.729.231 1.727.345 2.763.345 2.532 0 4.604-.806 4.604-3.683z"/><path d="m209.354 89.94h-2.993c-.806 0-.883.537-.883 1.189v1.803l-3.915-.268v-6.521h20.071v6.521l-3.915.268v-1.803c0-.729-.077-1.189-1.113-1.189h-2.61v18.336l3.032.115v3.261h-10.822v-3.107l2.034-.115c.73-.077 1.113-.307 1.113-1.074v-17.416z"/><path d="m228.316 89.48-2.418-.231v-3.107h8.788l7.829 22.133h.038l2.188.115v3.261h-9.902v-3.107l1.459-.115c.806-.077 1.189-.307.921-1.151l-.806-2.378h-8.98l-1.152 3.375 2.303.115v3.261h-8.865v-3.107l1.266-.115c.653-.077.883-.345 1.152-1.074zm.038 11.891h7.138l-3.454-10.932h-.115z"/><path d="m251.845 103.366c0 3.759 1.957 4.872 5.028 4.872 3.07 0 4.989-1.534 4.989-4.68v-14.04l-2.226-.115v-3.26h9.095v3.107l-1.266.115c-.691.076-1.113.383-1.113 1.15v13.695c0 5.025-3.799 7.94-9.633 7.94-6.294 0-9.518-2.532-9.518-8.554v-14.078l-2.226-.115v-3.26h9.287v3.107l-1.266.115c-.73.076-1.152.307-1.152 1.266v12.735z"/><path d="m270.654 108.544 1.266-.115c.653-.077 1.113-.307 1.113-1.074v-17.837l-2.188-.115v-3.26h10.477c5.641 0 9.21 1.841 9.21 7.058 0 3.836-2.494 5.907-4.605 6.751 1.036.383 1.612 1.036 2.188 2.34l2.763 6.022 2.188.076v3.261h-9.479v-3.107l1.113-.115c.883-.115 1.074-.46.729-1.227l-1.804-3.836c-.537-1.189-1.074-1.764-2.418-1.764h-3.492v6.674l2.494.115v3.261h-9.556v-3.108zm10.4-10.587c3.262 0 4.72-1.496 4.72-4.219 0-3.452-1.995-3.874-5.258-3.874h-2.802v8.094h3.34z"/><path d="m302.242 89.48-2.418-.231v-3.107h8.788l7.829 22.133h.038l2.188.115v3.261h-9.902v-3.107l1.459-.115c.806-.077 1.189-.307.921-1.151l-.806-2.378h-8.98l-1.152 3.375 2.303.115v3.261h-8.865v-3.107l1.266-.115c.653-.077.883-.345 1.152-1.074zm.039 11.891h7.138l-3.454-10.932h-.115z"/><path d="m320.092 108.544 1.382-.115c.653-.039.998-.307.998-1.074v-17.837l-2.188-.115v-3.26h6.908l10.861 17.607h.077v-14.232l-2.533-.115v-3.26h9.364v3.107l-1.382.115c-.576.038-.921.383-.921 1.189v21.097h-4.49l-11.091-17.875h-.077v14.5l2.495.115v3.261h-9.403z"/><path d="m354.29 89.94h-2.993c-.806 0-.883.537-.883 1.189v1.803l-3.915-.268v-6.521h20.071v6.521l-3.915.268v-1.803c0-.729-.077-1.189-1.113-1.189h-2.61v18.336l3.032.115v3.261h-10.822v-3.107l2.034-.115c.729-.077 1.113-.307 1.113-1.074v-17.416z"/></g></g></g></svg>